<?xml version="1.0" encoding="UTF-8"?>
<svg width="161px" height="156px" viewBox="0 0 161 156" version="1.1" xmlns="http://www.w3.org/2000/svg" xmlns:xlink="http://www.w3.org/1999/xlink">
    <title>编组 51</title>
    <g id="logo" stroke="none" stroke-width="1" fill="none" fill-rule="evenodd">
        <g id="编组-51" transform="translate(0.221518, 4.000000)">
            <g id="编组-41" transform="translate(40.478482, 73.055556) rotate(-90.000000) translate(-40.478482, -73.055556) translate(24.478482, 38.300000)">
                <path d="M16,37.5111111 C24.836556,37.5111111 32,44.6745551 32,53.5111111 C32,62.3476671 24.836556,69.5111111 16,69.5111111 C7.163444,69.5111111 1.082166e-15,62.3476671 0,53.5111111 C-1.082166e-15,44.6745551 7.163444,37.5111111 16,37.5111111 Z" id="矩形备份-31" fill="#B3D7FC" transform="translate(16.000000, 53.511111) rotate(-630.000000) translate(-16.000000, -53.511111) "></path>
                <path d="M15.6444444,-2.66453526e-14 C22.0264016,-2.78176991e-14 27.2,5.17359845 27.2,11.5555556 C27.2,17.9375127 22.0264016,23.1111111 15.6444444,23.1111111 C9.26248734,23.1111111 4.08888889,17.9375127 4.08888889,11.5555556 C4.08888889,5.17359845 9.26248734,-2.36966492e-14 15.6444444,-2.66453526e-14 Z" id="矩形备份-90" fill="#B3D7FC" transform="translate(15.644444, 11.555556) rotate(-630.000000) translate(-15.644444, -11.555556) "></path>
                <path d="M15.6444444,4.33333333 C19.6331676,4.33333333 22.8666667,7.56683236 22.8666667,11.5555556 C22.8666667,15.5442787 19.6331676,18.7777778 15.6444444,18.7777778 C11.6557213,18.7777778 8.42222222,15.5442787 8.42222222,11.5555556 C8.42222222,7.56683236 11.6557213,4.33333333 15.6444444,4.33333333 Z" id="矩形备份-92" fill="#FFFFFF" transform="translate(15.644444, 11.555556) rotate(-630.000000) translate(-15.644444, -11.555556) "></path>
                <path d="M4.96285707,23.4978987 C8.73124007,27.1617974 12.1355631,28.9937468 15.175826,28.9937468 C18.216089,28.9937468 22.1671263,25.9452491 27.028938,19.8482539 L27.028938,42.1822113 C21.5226152,36.9454572 17.5715779,34.3270801 15.175826,34.3270801 C12.7800742,34.3270801 9.37575118,35.9726385 4.96285707,39.2637552 L4.96285707,23.4978987 Z" id="矩形备份-93" fill="#B3D7FC" transform="translate(15.995898, 31.015233) rotate(-270.000000) translate(-15.995898, -31.015233) "></path>
            </g>
            <path d="M42.7784825,87 C47.7490452,87 51.7784825,91.0294373 51.7784825,96 C51.7784825,100.970563 47.7490452,105 42.7784825,105 C37.8079197,105 33.7784825,100.970563 33.7784825,96 C33.7784825,91.0294373 37.8079197,87 42.7784825,87 Z" id="矩形备份-100" fill="#B3D7FC" transform="translate(42.778482, 96.000000) rotate(-630.000000) translate(-42.778482, -96.000000) "></path>
            <path d="M42.7784825,41 C47.7490452,41 51.7784825,45.0294373 51.7784825,50 C51.7784825,54.9705627 47.7490452,59 42.7784825,59 C37.8079197,59 33.7784825,54.9705627 33.7784825,50 C33.7784825,45.0294373 37.8079197,41 42.7784825,41 Z" id="矩形备份-101" fill="#B3D7FC" transform="translate(42.778482, 50.000000) rotate(-630.000000) translate(-42.778482, -50.000000) "></path>
            <path d="M32,11 C35.3137085,11 38,13.6862915 38,17 C38,20.3137085 35.3137085,23 32,23 C28.6862915,23 26,20.3137085 26,17 C26,13.6862915 28.6862915,11 32,11 Z" id="矩形备份-102" fill="#B3D7FC" transform="translate(32.000000, 17.000000) rotate(-630.000000) translate(-32.000000, -17.000000) "></path>
            <path d="M32,123 C35.3137085,123 38,125.686292 38,129 C38,132.313708 35.3137085,135 32,135 C28.6862915,135 26,132.313708 26,129 C26,125.686292 28.6862915,123 32,123 Z" id="矩形备份-103" fill="#B3D7FC" transform="translate(32.000000, 129.000000) rotate(-630.000000) translate(-32.000000, -129.000000) "></path>
            <path d="M67.7784825,0 C71.6444757,-7.10171439e-16 74.7784825,3.13400675 74.7784825,7 C74.7784825,10.8659932 71.6444757,14 67.7784825,14 C63.9124892,14 60.7784825,10.8659932 60.7784825,7 C60.7784825,3.13400675 63.9124892,7.10171439e-16 67.7784825,0 Z" id="矩形备份-104" fill="#B3D7FC" transform="translate(67.778482, 7.000000) rotate(-630.000000) translate(-67.778482, -7.000000) "></path>
            <path d="M67.7784825,38 C71.6444757,38 74.7784825,41.1340068 74.7784825,45 C74.7784825,48.8659932 71.6444757,52 67.7784825,52 C63.9124892,52 60.7784825,48.8659932 60.7784825,45 C60.7784825,41.1340068 63.9124892,38 67.7784825,38 Z" id="矩形备份-108" fill="#B3D7FC" transform="translate(67.778482, 45.000000) rotate(-630.000000) translate(-67.778482, -45.000000) "></path>
            <path d="M67.7784825,132 C71.6444757,132 74.7784825,135.134007 74.7784825,139 C74.7784825,142.865993 71.6444757,146 67.7784825,146 C63.9124892,146 60.7784825,142.865993 60.7784825,139 C60.7784825,135.134007 63.9124892,132 67.7784825,132 Z" id="矩形备份-105" fill="#B3D7FC" transform="translate(67.778482, 139.000000) rotate(-630.000000) translate(-67.778482, -139.000000) "></path>
            <path d="M67.7784825,93 C71.6444757,93 74.7784825,96.1340068 74.7784825,100 C74.7784825,103.865993 71.6444757,107 67.7784825,107 C63.9124892,107 60.7784825,103.865993 60.7784825,100 C60.7784825,96.1340068 63.9124892,93 67.7784825,93 Z" id="矩形备份-109" fill="#B3D7FC" transform="translate(67.778482, 100.000000) rotate(-630.000000) translate(-67.778482, -100.000000) "></path>
            <g id="编组-41备份-3" transform="translate(33.478482, 32.711111) scale(1, -1) rotate(115.000000) translate(-33.478482, -32.711111) translate(19.478482, 2.300000)">
                <path d="M14,32.8222222 C21.7319865,32.8222222 28,39.0902357 28,46.8222222 C28,54.5542087 21.7319865,60.8222222 14,60.8222222 C6.2680135,60.8222222 -4.38217527e-15,54.5542087 1.77635684e-15,46.8222222 C8.29461588e-16,39.0902357 6.2680135,32.8222222 14,32.8222222 Z" id="矩形备份-31" fill="#B3D7FC" transform="translate(14.000000, 46.822222) rotate(-630.000000) translate(-14.000000, -46.822222) "></path>
                <path d="M13.6888889,-2.66453526e-14 C19.2731014,-2.76711558e-14 23.8,4.52689864 23.8,10.1111111 C23.8,15.6953236 19.2731014,20.2222222 13.6888889,20.2222222 C8.10467642,20.2222222 3.57777778,15.6953236 3.57777778,10.1111111 C3.57777778,4.52689864 8.10467642,-2.56195494e-14 13.6888889,-2.66453526e-14 Z" id="矩形备份-90" fill="#B3D7FC" transform="translate(13.688889, 10.111111) rotate(-630.000000) translate(-13.688889, -10.111111) "></path>
                <path d="M13.6888889,3.79166667 C17.1790217,3.79166667 20.0083333,6.62097832 20.0083333,10.1111111 C20.0083333,13.6012439 17.1790217,16.4305556 13.6888889,16.4305556 C10.1987561,16.4305556 7.36944444,13.6012439 7.36944444,10.1111111 C7.36944444,6.62097832 10.1987561,3.79166667 13.6888889,3.79166667 Z" id="矩形备份-92" fill="#FFFFFF" transform="translate(13.688889, 10.111111) rotate(-630.000000) translate(-13.688889, -10.111111) "></path>
                <path d="M4.34249993,20.5606614 C7.63983506,23.7665728 10.6186177,25.3695284 13.2788478,25.3695284 C15.9390779,25.3695284 19.3962355,22.702093 23.6503207,17.3672221 L23.6503207,36.9094349 C18.8322883,32.327275 15.3751306,30.0361951 13.2788478,30.0361951 C11.1825649,30.0361951 8.20378228,31.4760587 4.34249993,34.3557858 L4.34249993,20.5606614 Z" id="矩形备份-93" fill="#B3D7FC" transform="translate(13.996410, 27.138329) rotate(-270.000000) translate(-13.996410, -27.138329) "></path>
            </g>
            <g id="编组-41备份-4" transform="translate(33.478482, 112.711111) rotate(115.000000) translate(-33.478482, -112.711111) translate(19.478482, 82.300000)">
                <path d="M14,32.8222222 C21.7319865,32.8222222 28,39.0902357 28,46.8222222 C28,54.5542087 21.7319865,60.8222222 14,60.8222222 C6.2680135,60.8222222 -4.38217527e-15,54.5542087 1.77635684e-15,46.8222222 C8.29461588e-16,39.0902357 6.2680135,32.8222222 14,32.8222222 Z" id="矩形备份-31" fill="#B3D7FC" transform="translate(14.000000, 46.822222) rotate(-630.000000) translate(-14.000000, -46.822222) "></path>
                <path d="M13.6888889,-2.66453526e-14 C19.2731014,-2.76711558e-14 23.8,4.52689864 23.8,10.1111111 C23.8,15.6953236 19.2731014,20.2222222 13.6888889,20.2222222 C8.10467642,20.2222222 3.57777778,15.6953236 3.57777778,10.1111111 C3.57777778,4.52689864 8.10467642,-2.56195494e-14 13.6888889,-2.66453526e-14 Z" id="矩形备份-90" fill="#B3D7FC" transform="translate(13.688889, 10.111111) rotate(-630.000000) translate(-13.688889, -10.111111) "></path>
                <path d="M13.6888889,3.79166667 C17.1790217,3.79166667 20.0083333,6.62097832 20.0083333,10.1111111 C20.0083333,13.6012439 17.1790217,16.4305556 13.6888889,16.4305556 C10.1987561,16.4305556 7.36944444,13.6012439 7.36944444,10.1111111 C7.36944444,6.62097832 10.1987561,3.79166667 13.6888889,3.79166667 Z" id="矩形备份-92" fill="#FFFFFF" transform="translate(13.688889, 10.111111) rotate(-630.000000) translate(-13.688889, -10.111111) "></path>
                <path d="M4.34249993,20.5606614 C7.63983506,23.7665728 10.6186177,25.3695284 13.2788478,25.3695284 C15.9390779,25.3695284 19.3962355,22.702093 23.6503207,17.3672221 L23.6503207,36.9094349 C18.8322883,32.327275 15.3751306,30.0361951 13.2788478,30.0361951 C11.1825649,30.0361951 8.20378228,31.4760587 4.34249993,34.3557858 L4.34249993,20.5606614 Z" id="矩形备份-93" fill="#B3D7FC" transform="translate(13.996410, 27.138329) rotate(-270.000000) translate(-13.996410, -27.138329) "></path>
            </g>
            <path d="M128.778482,26.559636 L127.571102,20.1461172 C125.371656,8.46282195 115.167004,0 103.278482,0 C91.9566451,0 82.7784825,9.17816263 82.7784825,20.5 L82.7784825,127.5 C82.7784825,138.821837 91.9566451,148 103.278482,148 C114.734232,148 124.150541,138.963405 124.621804,127.517353" id="矩形" stroke="#007AF5" stroke-width="7"></path>
            <path d="M147.08859,81.0885385 C153.02932,86.3116313 156.778482,93.9679837 156.778482,102.5 C156.778482,118.240115 144.018598,131 128.278482,131 C117.785072,131 111.248927,127.619662 108.670046,120.858987" id="椭圆形" stroke="#007AF5" stroke-width="7"></path>
            <path d="M128.278482,30 C144.018598,30 156.778482,42.7598846 156.778482,58.5 C156.778482,74.2401154 144.018598,87 128.278482,87 C117.785072,87 111.248927,86.1666667 108.670046,84.5" id="椭圆形备份-77" stroke="#007AF5" stroke-width="7"></path>
            <path d="M107.1988,0.292493396 C120.497615,2.70270751 128.778482,14.4884139 128.778482,28.4821885 C128.778482,36.3117046 125.621292,43.4216309 120.510573,48.5726825" id="椭圆形备份-78" stroke="#007AF5" stroke-width="7"></path>
            <path d="M97.7784825,122 C97.7784825,116.477153 102.255635,112 107.778482,112 C113.30133,112 117.778482,116.477153 117.778482,122 C117.778482,127.522847 113.30133,132 107.778482,132 C102.255635,132 97.7784825,127.522847 97.7784825,122 Z" id="椭圆形" stroke="#007AF5" stroke-width="7" fill="#007AF5"></path>
            <path d="M104.778482,85 C104.778482,79.4771525 109.255635,75 114.778482,75 C120.30133,75 124.778482,79.4771525 124.778482,85 C124.778482,90.5228475 120.30133,95 114.778482,95 C109.255635,95 104.778482,90.5228475 104.778482,85 Z" id="椭圆形备份-79" stroke="#007AF5" stroke-width="7" fill="#007AF5"></path>
            <path d="M108.778482,49 C108.778482,43.4771525 113.255635,39 118.778482,39 C124.30133,39 128.778482,43.4771525 128.778482,49 C128.778482,54.5228475 124.30133,59 118.778482,59 C113.255635,59 108.778482,54.5228475 108.778482,49 Z" id="椭圆形备份-80" stroke="#007AF5" stroke-width="7" fill="#007AF5"></path>
        </g>
    </g>
</svg>